<svg width="12" height="25" viewBox="0 0 12 25" fill="none" xmlns="http://www.w3.org/2000/svg">
<path d="M11.6775 2.10782C11.7805 1.98856 11.8611 1.84826 11.9145 1.69493C11.968 1.54161 11.9933 1.37827 11.9891 1.21424C11.9848 1.05021 11.9511 0.888701 11.8898 0.738931C11.8285 0.589162 11.7409 0.454068 11.6318 0.341361C11.5228 0.228655 11.3946 0.140543 11.2545 0.0820583C11.1143 0.0235733 10.9651 -0.0041405 10.8151 0.000499709C10.6652 0.00513992 10.5176 0.042043 10.3807 0.109102C10.2438 0.176161 10.1204 0.272063 10.0174 0.391332L0.312101 11.6347C0.111675 11.8667 -7.31465e-09 12.1738 -7.50644e-09 12.493C-7.69824e-09 12.8122 0.111675 13.1193 0.312101 13.3512L10.0174 24.5959C10.1197 24.7178 10.2431 24.8162 10.3805 24.8854C10.5179 24.9547 10.6665 24.9933 10.8177 24.9992C10.9688 25.0051 11.1196 24.978 11.2611 24.9196C11.4026 24.8612 11.5321 24.7727 11.6421 24.659C11.7521 24.5454 11.8403 24.409 11.9017 24.2578C11.9631 24.1065 11.9964 23.9434 11.9997 23.7779C12.003 23.6125 11.9762 23.4479 11.9209 23.2939C11.8656 23.1399 11.7829 22.9994 11.6775 22.8806L2.71215 12.493L11.6775 2.10782Z"/>
</svg>
