<svg width="10" height="14" viewBox="0 0 10 14" xmlns="http://www.w3.org/2000/svg">
<path d="M5.54025 0.232149C5.3994 0.0835041 5.20839 0 5.00923 0C4.81007 0 4.61906 0.0835041 4.47821 0.232149L0.229299 4.71756C0.157562 4.79071 0.100342 4.8782 0.0609786 4.97493C0.0216147 5.07167 0.000894977 5.17571 2.83584e-05 5.28099C-0.00083826 5.38628 0.0181658 5.49068 0.0559312 5.58813C0.0936966 5.68557 0.149467 5.7741 0.219989 5.84855C0.290511 5.92299 0.374371 5.98187 0.466677 6.02174C0.558983 6.0616 0.657887 6.08167 0.757616 6.08075C0.857345 6.07984 0.955903 6.05796 1.04754 6.01641C1.13917 5.97485 1.22205 5.91445 1.29134 5.83872L4.25814 2.70678V13.2071C4.25814 13.4174 4.33727 13.6191 4.47813 13.7678C4.61899 13.9165 4.81003 14 5.00923 14C5.20843 14 5.39947 13.9165 5.54033 13.7678C5.68119 13.6191 5.76032 13.4174 5.76032 13.2071V2.70678L8.72712 5.83872C8.86878 5.98315 9.0585 6.06307 9.25544 6.06126C9.45237 6.05946 9.64075 5.97607 9.78001 5.82906C9.91927 5.68205 9.99826 5.48318 9.99997 5.27529C10.0017 5.06739 9.92598 4.86711 9.78916 4.71756L5.54025 0.232149Z" />
</svg>
