<svg width="19" height="19" viewBox="0 0 19 19"  xmlns="http://www.w3.org/2000/svg">
<path fill-rule="evenodd" clip-rule="evenodd" d="M8.45092 1.90596e-08C7.10323 0.000114835 5.7751 0.322519 4.57734 0.940314C3.37959 1.55811 2.34694 2.45338 1.56556 3.55143C0.784169 4.64949 0.276704 5.91848 0.0854961 7.25255C-0.105711 8.58661 0.0248839 9.94706 0.466387 11.2204C0.90789 12.4937 1.6475 13.643 2.6235 14.5723C3.59951 15.5017 4.78361 16.1842 6.07702 16.5628C7.37043 16.9415 8.73564 17.0053 10.0587 16.7491C11.3819 16.4928 12.6245 15.9239 13.683 15.0897L17.3142 18.7209C17.5017 18.902 17.7529 19.0022 18.0136 19C18.2743 18.9977 18.5237 18.8931 18.7081 18.7088C18.8924 18.5244 18.997 18.275 18.9992 18.0143C19.0015 17.7536 18.9013 17.5025 18.7202 17.3149L15.0889 13.6837C16.0713 12.4375 16.683 10.9398 16.8539 9.36216C17.0249 7.78451 16.7482 6.1906 16.0556 4.76284C15.363 3.33508 14.2824 2.13116 12.9376 1.28886C11.5927 0.446551 10.0378 -0.000106534 8.45092 1.90596e-08ZM1.9879 8.45164C1.9879 6.73754 2.66883 5.09365 3.88088 3.8816C5.09293 2.66955 6.73682 1.98862 8.45092 1.98862C10.165 1.98862 11.8089 2.66955 13.021 3.8816C14.233 5.09365 14.9139 6.73754 14.9139 8.45164C14.9139 10.1657 14.233 11.8096 13.021 13.0217C11.8089 14.2337 10.165 14.9147 8.45092 14.9147C6.73682 14.9147 5.09293 14.2337 3.88088 13.0217C2.66883 11.8096 1.9879 10.1657 1.9879 8.45164Z" />
</svg>
